<?xml version="1.0" encoding="UTF-8"?><svg xmlns="http://www.w3.org/2000/svg" xmlns:xlink="http://www.w3.org/1999/xlink" viewBox="0 0 216.99 80"><defs><style>.cls-1{fill:#fff;}.cls-2{fill:url(#_Áåçûìÿííûé_ãðàäèåíò_12-2);}.cls-3{fill:url(#_Áåçûìÿííûé_ãðàäèåíò_12-3);}.cls-4{fill:url(#_Áåçûìÿííûé_ãðàäèåíò_18-2);}.cls-4,.cls-5{mix-blend-mode:screen;}.cls-6{fill:#eefdff;}.cls-5{fill:url(#_Áåçûìÿííûé_ãðàäèåíò_18);}.cls-7{fill:url(#New_Gradient_Swatch_3-4);}.cls-8{fill:url(#New_Gradient_Swatch_2);}.cls-9{fill:none;isolation:isolate;}.cls-10{fill:url(#New_Gradient_Swatch_3-2);}.cls-11{fill:url(#New_Gradient_Swatch_3);}.cls-12{fill:url(#New_Gradient_Swatch_3-3);}.cls-13{fill:url(#New_Gradient_Swatch_3-7);}.cls-14{fill:url(#New_Gradient_Swatch_3-5);}.cls-15{fill:#144fad;}.cls-16{fill:url(#New_Gradient_Swatch_3-6);}.cls-17{fill:url(#_Áåçûìÿííûé_ãðàäèåíò_12);}</style><linearGradient id="New_Gradient_Swatch_2" x1="-602.81" y1="495.3" x2="-579" y2="470.87" gradientTransform="translate(-517.59 599.01) rotate(96.41) scale(1 -1)" gradientUnits="userSpaceOnUse"><stop offset=".04" stop-color="#144fad"/><stop offset=".24" stop-color="#215abe"/><stop offset=".74" stop-color="#4175e5"/><stop offset="1" stop-color="#4d80f5"/></linearGradient><linearGradient id="New_Gradient_Swatch_3" x1="-228.34" y1="9.53" x2="-223.9" y2="8.88" gradientTransform="translate(250.49 18.18) scale(1 -1)" gradientUnits="userSpaceOnUse"><stop offset=".04" stop-color="#2764e0"/><stop offset=".56" stop-color="#3d74ec"/><stop offset="1" stop-color="#4d80f5"/></linearGradient><linearGradient id="New_Gradient_Swatch_3-2" x1="-221.32" y1="12.11" x2="-228.92" y2="19.71" gradientTransform="translate(250.49 32.23) scale(1 -1)" xlink:href="#New_Gradient_Swatch_3"/><linearGradient id="New_Gradient_Swatch_3-3" x1="-240.18" y1="51.29" x2="-210.37" y2="21.49" gradientTransform="translate(250.49 67.17) scale(1 -1)" xlink:href="#New_Gradient_Swatch_3"/><linearGradient id="_Áåçûìÿííûé_ãðàäèåíò_12" x1="-225.41" y1="39.92" x2="-225.13" y2="27.44" gradientTransform="translate(-200.16) rotate(-180) scale(1 -1)" gradientUnits="userSpaceOnUse"><stop offset="0" stop-color="#030d14"/><stop offset="1" stop-color="#0b2f45"/></linearGradient><radialGradient id="_Áåçûìÿííûé_ãðàäèåíò_18" cx="-232.65" cy="33.58" fx="-232.65" fy="33.58" r="5.19" gradientTransform="translate(-200.16) rotate(-180) scale(1 -1)" gradientUnits="userSpaceOnUse"><stop offset=".13" stop-color="#3280fc"/><stop offset="1" stop-color="#000"/></radialGradient><linearGradient id="_Áåçûìÿííûé_ãðàäèåíò_12-2" x1="-235.81" y1="33.58" x2="-229.49" y2="33.58" xlink:href="#_Áåçûìÿííûé_ãðàäèåíò_12"/><radialGradient id="_Áåçûìÿííûé_ãðàäèåíò_18-2" cx="-218.49" fx="-218.49" r="5.19" xlink:href="#_Áåçûìÿííûé_ãðàäèåíò_18"/><linearGradient id="_Áåçûìÿííûé_ãðàäèåíò_12-3" x1="-221.65" y1="33.58" x2="-215.33" y2="33.58" xlink:href="#_Áåçûìÿííûé_ãðàäèåíò_12"/><linearGradient id="New_Gradient_Swatch_3-4" x1="-229.31" y1="4.17" x2="-223.44" y2="3.32" gradientTransform="translate(-200.16) rotate(-180) scale(1 -1)" xlink:href="#New_Gradient_Swatch_3"/><linearGradient id="New_Gradient_Swatch_3-5" x1="-234.05" y1="72.18" x2="-210.11" y2="44.23" gradientTransform="translate(-200.16) rotate(-180) scale(1 -1)" xlink:href="#New_Gradient_Swatch_3"/><linearGradient id="New_Gradient_Swatch_3-6" x1="-235.31" y1="58.24" x2="-220.92" y2="41.43" gradientTransform="translate(-200.16) rotate(-180) scale(1 -1)" xlink:href="#New_Gradient_Swatch_3"/><linearGradient id="New_Gradient_Swatch_3-7" x1="254.27" y1="115.38" x2="273.95" y2="105.12" gradientTransform="translate(-264.5 -7.8) rotate(-8.66)" xlink:href="#New_Gradient_Swatch_3"/></defs><g class="cls-9"><g id="_Ñëîé_5"><path class="cls-8" d="m45.88,50.94c-6.95,1.9-8.59,1.37-9.83,3.23-.14.21-.87,1.31-.72,2.71.12,1.12.74,1.98,1.13,2.36,2.38,2.3,8.93-.51,12.68-3.6.82-.67,3.01-2.48,2.57-3.76-.18-.52-.74-.79-1.15-.97-1.78-.8-3.64-.27-4.68.02Z"/><rect class="cls-11" x="24.43" y="4.24" width="1.48" height="9.71" transform="translate(50.33 18.18) rotate(-180)"/><rect class="cls-10" x="18.7" y="12.93" width="12.94" height="6.38" rx="3.13" ry="3.13" transform="translate(50.33 32.23) rotate(-180)"/><path class="cls-12" d="m14.44,15.98h21.45c6.86,0,12.43,5.57,12.43,12.43v.67c0,12.21-9.91,22.11-22.11,22.11h-2.08c-12.21,0-22.11-9.91-22.11-22.11v-.67c0-6.86,5.57-12.43,12.43-12.43Z" transform="translate(50.33 67.17) rotate(-180)"/><path class="cls-17" d="m9.3,39.5h0c.61.3,1.29.46,1.98.46h27.79c.69,0,1.37-.16,1.98-.46h0c1.49-.74,2.33-2.22,2.12-3.75l-.02-.11c-.71-5.16-5.39-9.13-11.12-9.43-2.42-.13-4.97-.19-7.62-.18-2.08.01-4.09.07-6.02.17-5.75.3-10.46,4.25-11.18,9.43,0,.04-.01.07-.02.11-.21,1.52.63,3.01,2.12,3.75Z"/><circle class="cls-5" cx="32.49" cy="33.58" r="5.24"/><circle class="cls-6" cx="32.49" cy="33.58" r="3.76"/><circle class="cls-2" cx="32.49" cy="33.58" r="3.16"/><path class="cls-6" d="m30.47,32.77c0,.65.52,1.17,1.17,1.17s1.17-.52,1.17-1.17c0-.65-.52-1.17-1.17-1.17s-1.17.52-1.17,1.17Z"/><circle class="cls-6" cx="32.96" cy="36.01" r=".47"/><path class="cls-6" d="m34.12,35.31c0,.13.1.23.23.23s.23-.1.23-.23c0-.13-.1-.23-.23-.23s-.23.1-.23.23Z"/><circle class="cls-4" cx="18.34" cy="33.58" r="5.24"/><circle class="cls-6" cx="18.34" cy="33.58" r="3.76"/><circle class="cls-3" cx="18.34" cy="33.58" r="3.16"/><path class="cls-6" d="m16.31,32.77c0,.65.52,1.17,1.17,1.17s1.17-.52,1.17-1.17c0-.65-.52-1.17-1.17-1.17s-1.17.52-1.17,1.17Z"/><circle class="cls-6" cx="18.8" cy="36.01" r=".47"/><path class="cls-6" d="m19.96,35.31c0,.13.1.23.23.23s.23-.1.23-.23-.1-.23-.23-.23-.23.1-.23.23Z"/><path class="cls-7" d="m23.27,3.59c0,1.05.85,1.89,1.89,1.89s1.89-.85,1.89-1.89-.85-1.89-1.89-1.89-1.89.85-1.89,1.89Z"/><path class="cls-1" d="m23.85,2.85c0,.32.26.58.58.58s.58-.26.58-.58c0-.32-.26-.58-.58-.58s-.58.26-.58.58Z"/><path class="cls-1" d="m8.85,22.05c-.03.88.7,1.94,1.52,2.03.78.08,1.39-.71,2.03-1.52.63-.81,2.01-2.87,1.46-3.46-.72-.77-4.96.86-5.01,2.95Z"/><circle class="cls-1" cx="15.93" cy="18.02" r=".66"/><path class="cls-1" d="m8.95,34.32c.21.15,1.68-2.85,5.64-5.45,1.39-.91,2.76-1.57,2.68-1.76-.08-.19-1.63.17-2.87.74-3.94,1.83-5.7,6.29-5.45,6.47Z"/><path class="cls-1" d="m19.07,14.81s.08-.27.31-.7c0,0,.11-.2.23-.37.4-.55,1.74-.53,1.85-.53,2.1.02,3.44-.11,3.44-.1,0,.01-.98,0-1.7-.02-2.03-.04-3.24-.15-3.76.39-.22.23-.32.52-.32.52-.15.4-.1.81-.04.81Z"/><path class="cls-6" d="m19.51,42.21c.05.5.47.89.97.94l6.94.67c.5.05.99-.25,1.13-.73.07-.21.12-.44.15-.66,0-.06,0-.13-.05-.18-.04-.05-.1-.08-.16-.09l-8.76-.84c-.06,0-.12.01-.17.06-.05.04-.08.1-.08.16-.01.23,0,.46.02.68Z"/><path class="cls-15" d="m19.51,42.21c.22,2.15,1.93,3.92,4.17,4.13,2.2.21,4.2-1.15,4.85-3.18-.17.43-.63.7-1.1.65l-6.94-.67c-.5-.05-.92-.44-.97-.94Z"/><path class="cls-14" d="m8.57,57.8c0,.06,0,.12,0,.18.02.58.16,1.02.22,1.22,1.91,5.84,3.06,8.91,4.66,11.4.28.43.57.84.88,1.25.41.54.86,1.07,1.36,1.61,1.11,1.21,2.79,1.75,3.33,1.94,1.98.7,3.72.57,4.89.58h.2c1.16-.01,2.91.12,4.89-.58.54-.19,2.22-.73,3.33-1.94,3.05-3.32,4.22-6.08,6.9-14.26.06-.19.19-.6.22-1.14,0-.16.01-.32,0-.47-.06-.98-.45-1.94-1.16-2.81-1.21-1.5-3.07-2.33-5-2.33l-9.29-.04-9.12-.04c-1.97,0-3.88.82-5.13,2.34-.6.74-.99,1.53-1.13,2.35-.02.12-.04.24-.05.35-.01.13-.02.26-.02.39Z"/><path class="cls-16" d="m24.01,52.4l9.29.04c1.93,0,3.79.83,5,2.33.7.88,1.1,1.84,1.16,2.81-.05-1-.46-1.99-1.2-2.88-1.25-1.52-3.16-2.35-5.13-2.34l-9.12.04Z"/><path class="cls-13" d="m14.78,66.08c.14-7.2,1.11-8.63-.33-10.34-.17-.2-1.01-1.2-2.39-1.46-1.1-.2-2.11.15-2.58.42-2.88,1.63-2.03,8.71-.13,13.18.41.97,1.52,3.59,2.88,3.53.55-.03.96-.49,1.25-.83,1.27-1.49,1.28-3.41,1.3-4.5Z"/><path class="cls-15" d="m13.46,70.61c.28.43.57.84.88,1.25.1-.1.19-.21.27-.3,1.27-1.49,1.28-3.41,1.3-4.5.14-7.2,1.11-8.63-.33-10.34-.11-.13-.49-.59-1.12-.96,1.42,1.71.45,3.14.32,10.33-.02,1.09-.04,3.01-1.3,4.5,0,0-.02.02-.02.03Z"/><path class="cls-1" d="m9.39,60.08c.04-.77.19-1.34.48-2.48.38-1.49.86-2.22.55-2.5-.2-.19-.6-.06-.69-.03-1.36.43-1.78,2.99-1.72,4.59.04.98.27,2.07.63,2.12.06,0,.2,0,.3-.09.4-.35.43-1.01.46-1.6Z"/><path class="cls-1" d="m59.64,53.12v-.16c-.5-3.77-.68-9.41-.68-15.01s.1-10.75.71-14.12c.1-3.27,3.95-4.32,7.64-4.32.1.03.24.03.37.03,1.94.08,3.98.63,5.88,1.96,3.82,2.72,5.86,7.95,5.86,15.85,0,9.15-3.77,14.75-7.82,17.31-2.9,1.8-5.86,2.2-7.32,2.28-.26.05-.5.08-.76.08-2.07,0-3.87-1.75-3.87-3.9Zm1.31-21.39l.1-1.86c0-.21-.18-.37-.39-.37s-.37.16-.37.37l-.13,1.8c0,.21.16.39.37.39h.05c.18,0,.34-.16.37-.34Zm.16-3.45c.13-3.87-.08-6.62,3.74-7.19.21-.03.34-.21.34-.39-.03-.21-.18-.37-.39-.37h-.05c-4.29.65-4.24,3.79-4.39,7.92,0,.21.16.39.37.39h.05c.18,0,.34-.18.34-.37Zm10.64,9.08c0-6.62-1.62-8.87-2.64-9.6-.58-.39-1.28-.55-2.09-.55-.21,2.62-.39,6.72-.39,10.75,0,3.69.13,7.53.31,10.54,2.14-1.07,4.81-3.43,4.81-11.14Zm-1.99,11.06c1.52-1.26,2.51-3.64,3.09-5.99l.03-.1c0-.24-.18-.34-.44-.37-.16,0-.29.13-.31.29-.58,2.28-1.6,4.52-2.85,5.6-.08.08-.13.18-.13.29,0,.21.16.39.37.39.1,0,.18-.03.26-.1Z"/><path class="cls-1" d="m94.34,57.02c-4.32-.21-7.64-3.5-9.02-7.09-1.18-3.06-1.57-6.54-1.57-10.23l.03-1.8c.1-4.29.44-8.32,1.96-11.85.78-1.75,1.91-3.45,3.64-4.66,1.54-1.1,3.53-1.67,5.52-1.7.21,0,.42,0,.63.03,4.42.21,7.9,3.53,9.23,7.14,1.1,3.01,1.36,6.33,1.36,9.83l-.03,2.14c-.13,4.37-.63,8.42-2.2,11.9-1.54,3.35-5.02,6.28-9.13,6.28h-.42Zm-8.21-25.21c.08-.55.18-1.18.31-1.78v-.1c0-.18-.16-.37-.39-.37-.18,0-.31.16-.37.31-.13.6-.24,1.26-.31,1.83v.05c0,.18.13.37.34.39h.05c.18,0,.34-.16.37-.34Zm.68-3.4c.76-3.64,3.22-6.49,6.17-6.75.21-.03.37-.18.37-.39s-.18-.37-.39-.37h-.03c-3.4.29-6.07,3.48-6.85,7.35v.08c0,.18.1.34.29.39h.05c.18,0,.37-.13.39-.31Zm10.09,19.14c.84-1.78,1.41-5.1,1.52-8.92l.03-1.46c0-3.27-.31-6.04-.92-7.66-.65-1.86-1.36-2.28-2.41-2.28-1.1,0-1.75.6-2.35,1.88-.76,1.73-1.23,5.07-1.33,8.97l-.03,1.2c0,3.32.39,6.17,1.05,7.87.76,1.91,1.39,2.2,2.28,2.2.84,0,1.57-.5,2.17-1.8Zm.78,1.83c1.28-1.52,1.83-4.03,1.99-6.43v-.05c0-.21-.16-.37-.34-.37h-.05c-.21,0-.37.16-.37.37-.16,2.33-.76,4.73-1.8,5.99-.08.05-.1.16-.1.26s.05.21.13.29c.08.05.18.08.26.08.1,0,.21-.05.29-.13Z"/><path class="cls-1" d="m117.22,53.17l.08-26.1c-2.25.03-4.08.1-4.66.21-.24.05-.47.08-.71.08-1.86,0-3.48-1.31-3.82-3.19-.03-.21-.05-.44-.05-.65,0-1.86,1.36-3.48,3.24-3.79,2.41-.42,6.12-.63,9.81-.63s7.38.24,9.75.63c1.91.29,3.27,1.91,3.27,3.77,0,.21,0,.44-.05.65-.29,1.88-1.94,3.22-3.77,3.22-.24,0-.47-.03-.71-.08-.63-.1-2.43-.18-4.63-.21l-.1,26.13c0,2.09-1.7,3.82-3.84,3.82s-3.82-1.75-3.82-3.84Zm-7.56-28.01c.16-.05.26-.18.26-.37l-.03-.13c-.08-.31-.16-.65-.16-1.02,0-.24.03-.5.08-.73.13-.6.44-1.18,1.02-1.6.1-.08.16-.18.16-.31,0-.18-.13-.37-.37-.37-.08,0-.18.03-.24.05-.76.55-1.15,1.31-1.31,2.07-.08.31-.1.6-.1.89,0,.44.08.89.18,1.26.05.18.21.29.39.29l.1-.03Zm5.81-4.37c.18,0,.34-.16.37-.34,0-.21-.16-.42-.37-.42-.21-.03-.5-.03-.78-.03l-.97.03-1.65.03c-.21,0-.37.16-.37.37v.05c0,.18.16.34.37.34l3.4-.03Zm3.09,31.7l.05-4.73c0-.21-.18-.39-.39-.39s-.39.18-.39.39c0,2.04,0,2.96-.03,4.68,0,.21.18.39.39.39s.37-.13.37-.34Z"/><path class="cls-1" d="m138.56,53.15v-.16c-.47-3.77-.65-9.41-.65-15.04s.1-10.72.68-14.07c.03-1.8,1.36-3.32,2.96-3.69,1.49-.42,3.09-.73,4.84-.73,1.57,0,3.14.24,4.71.84,3.35,1.26,6.22,4.94,6.22,9.41,0,3.09-1.1,5.62-2.64,7.56,1.91,1.88,3.06,4.66,3.06,7.58,0,3.09-1.07,5.83-2.75,7.74-1.67,1.88-3.77,2.9-5.65,3.5-2.38.78-4.63.89-5.96.89l-.92.03c-2.04,0-3.9-1.7-3.9-3.87Zm1.1-21.42l.1-1.86c0-.21-.18-.37-.39-.37s-.37.16-.37.37l-.13,1.8c0,.21.16.39.37.42.21,0,.39-.16.42-.37Zm.16-3.45c.13-3.87-.08-6.62,3.74-7.19.21-.03.34-.21.34-.39-.03-.21-.18-.37-.39-.37h-.05c-4.29.65-4.24,3.79-4.39,7.92,0,.21.16.39.37.39h.05c.18,0,.34-.18.34-.37Zm9.83,1.46c0-1.88-1.26-2.59-3.01-2.59l-.71.03c-.13,1.83-.26,4.37-.31,7.09,2.09-.5,4.03-1.41,4.03-4.52Zm-.42,17.76c.47-.52.84-1.12.84-2.64,0-1.88-1.23-2.62-2.98-2.62h-.08c-.44,0-.89.05-1.39.13.05,2.46.16,4.79.29,6.72,1.39-.26,2.64-.81,3.32-1.6Zm-.6-12.71c1.52-.44,2.56-2.41,2.56-3.87,0-.21-.18-.39-.39-.39s-.37.18-.37.39c0,1.2-.92,2.82-2.01,3.14-.18.05-.29.21-.29.39.03.24.16.37.39.37l.1-.03Zm2.8,10.59c0-.21-.18-.34-.37-.34-.21,0-.39.16-.39.37,0,1.26-.94,2.82-2.01,3.14-.18.05-.29.21-.29.39.05.24.16.37.39.37,1.8-.31,2.56-2.43,2.67-3.92Z"/><path class="cls-1" d="m172.14,57.02c-4.32-.21-7.64-3.5-9.02-7.09-1.18-3.06-1.57-6.54-1.57-10.23l.03-1.8c.1-4.29.44-8.32,1.96-11.85.78-1.75,1.91-3.45,3.64-4.66,1.54-1.1,3.53-1.67,5.52-1.7.21,0,.42,0,.63.03,4.42.21,7.9,3.53,9.23,7.14,1.1,3.01,1.36,6.33,1.36,9.83l-.03,2.14c-.13,4.37-.63,8.42-2.2,11.9-1.54,3.35-5.02,6.28-9.13,6.28h-.42Zm-8.21-25.21c.08-.55.18-1.18.31-1.78v-.1c0-.18-.16-.37-.39-.37-.18,0-.31.16-.37.31-.13.6-.24,1.26-.31,1.83v.05c0,.18.13.37.34.39h.05c.18,0,.34-.16.37-.34Zm.68-3.4c.76-3.64,3.22-6.49,6.17-6.75.21-.03.37-.18.37-.39s-.18-.37-.39-.37h-.03c-3.4.29-6.07,3.48-6.85,7.35v.08c0,.18.1.34.29.39h.05c.18,0,.37-.13.39-.31Zm10.09,19.14c.84-1.78,1.41-5.1,1.52-8.92l.03-1.46c0-3.27-.31-6.04-.92-7.66-.65-1.86-1.36-2.28-2.41-2.28-1.1,0-1.75.6-2.35,1.88-.76,1.73-1.23,5.07-1.33,8.97l-.03,1.2c0,3.32.39,6.17,1.05,7.87.76,1.91,1.39,2.2,2.28,2.2.84,0,1.57-.5,2.17-1.8Zm.78,1.83c1.28-1.52,1.83-4.03,1.99-6.43v-.05c0-.21-.16-.37-.34-.37h-.05c-.21,0-.37.16-.37.37-.16,2.33-.76,4.73-1.8,5.99-.08.05-.1.16-.1.26s.05.21.13.29c.08.05.18.08.26.08.1,0,.21-.05.29-.13Z"/><path class="cls-1" d="m195.03,53.17l.08-26.1c-2.25.03-4.08.1-4.66.21-.24.05-.47.08-.71.08-1.86,0-3.48-1.31-3.82-3.19-.03-.21-.05-.44-.05-.65,0-1.86,1.36-3.48,3.24-3.79,2.41-.42,6.12-.63,9.81-.63s7.38.24,9.75.63c1.91.29,3.27,1.91,3.27,3.77,0,.21,0,.44-.05.65-.29,1.88-1.94,3.22-3.77,3.22-.24,0-.47-.03-.71-.08-.63-.1-2.43-.18-4.63-.21l-.1,26.13c0,2.09-1.7,3.82-3.84,3.82s-3.82-1.75-3.82-3.84Zm-7.56-28.01c.16-.05.26-.18.26-.37l-.03-.13c-.08-.31-.16-.65-.16-1.02,0-.24.03-.5.08-.73.13-.6.44-1.18,1.02-1.6.1-.08.16-.18.16-.31,0-.18-.13-.37-.37-.37-.08,0-.18.03-.24.05-.76.55-1.15,1.31-1.31,2.07-.08.31-.1.6-.1.89,0,.44.08.89.18,1.26.05.18.21.29.39.29l.1-.03Zm5.81-4.37c.18,0,.34-.16.37-.34,0-.21-.16-.42-.37-.42-.21-.03-.5-.03-.78-.03l-.97.03-1.65.03c-.21,0-.37.16-.37.37v.05c0,.18.16.34.37.34l3.4-.03Zm3.09,31.7l.05-4.73c0-.21-.18-.39-.39-.39s-.39.18-.39.39c0,2.04,0,2.96-.03,4.68,0,.21.18.39.39.39s.37-.13.37-.34Z"/><path class="cls-1" d="m61.54,68.41c-.16,0-.3-.04-.43-.11-.13-.07-.19-.17-.19-.3v-7.01h-1.81c-.12,0-.22-.06-.29-.18-.07-.12-.11-.25-.11-.4,0-.14.03-.27.09-.39.06-.12.16-.18.3-.18h4.86c.15,0,.25.06.32.18s.09.24.09.37c0,.16-.03.29-.1.41s-.17.18-.31.18h-1.8v7.01c0,.13-.06.23-.19.3-.13.07-.27.11-.43.11Z"/><path class="cls-1" d="m66,68.41c-.18,0-.33-.04-.44-.13-.11-.09-.17-.18-.17-.28v-8.04c0-.12.06-.21.17-.29.11-.07.26-.11.44-.11s.32.04.44.11c.12.07.18.17.18.29v3.72c.12-.23.3-.43.56-.61.25-.18.57-.27.94-.27s.7.1,1.01.31.56.48.74.83.28.74.28,1.16v2.9c0,.13-.06.23-.19.3-.13.07-.27.11-.43.11-.14,0-.28-.04-.41-.11-.13-.07-.2-.17-.2-.3v-2.9c0-.2-.05-.4-.16-.58-.11-.19-.25-.34-.43-.46-.18-.12-.37-.18-.59-.18-.19,0-.37.05-.54.15-.17.1-.31.24-.42.42-.11.18-.16.4-.16.66v2.9c0,.1-.06.2-.18.28-.12.09-.27.13-.44.13Z"/><path class="cls-1" d="m74.12,68.5c-.53,0-1-.1-1.4-.29-.41-.19-.73-.47-.96-.81-.23-.35-.35-.75-.35-1.22v-1.11c0-.41.11-.79.33-1.14.22-.34.52-.62.88-.82.37-.21.77-.31,1.22-.31.42,0,.81.09,1.16.27.35.18.63.44.85.77.21.33.32.7.32,1.12,0,.33-.05.56-.15.7-.1.14-.23.23-.4.26-.16.03-.34.05-.51.05h-2.47v.27c0,.39.14.7.43.93.28.23.65.35,1.09.35.27,0,.5-.04.67-.12.17-.08.32-.15.43-.22.12-.07.23-.11.33-.11s.19.03.26.09c.07.06.12.14.16.22.04.09.06.16.06.23,0,.12-.08.25-.24.39s-.38.26-.67.36c-.29.1-.63.15-1.03.15Zm-1.49-3.3h1.94c.17,0,.29-.02.35-.07.06-.05.09-.14.09-.28,0-.2-.05-.39-.15-.57-.1-.18-.24-.31-.42-.41-.18-.1-.38-.15-.61-.15s-.42.05-.6.14c-.18.09-.32.22-.43.39s-.16.36-.16.57v.37Z"/><path class="cls-1" d="m82.62,68.48c-.47,0-.9-.09-1.29-.26-.39-.17-.71-.45-.94-.83-.23-.38-.35-.89-.35-1.52v-3.41c0-.63.12-1.14.35-1.52.23-.38.55-.66.95-.83s.83-.26,1.3-.26c.54,0,1,.09,1.4.27.39.18.7.43.92.75.22.32.33.68.33,1.09,0,.27-.05.44-.15.52s-.26.12-.47.12c-.19,0-.34-.03-.44-.1-.11-.07-.17-.17-.18-.31,0-.1-.03-.22-.06-.36-.03-.14-.09-.28-.18-.42-.09-.14-.22-.25-.4-.34-.18-.09-.43-.13-.74-.13-.45,0-.8.12-1.04.37s-.36.63-.36,1.14v3.41c0,.51.12.9.37,1.14.25.25.6.37,1.07.37.3,0,.53-.04.71-.13.18-.09.31-.2.39-.34.09-.14.14-.28.18-.43.03-.15.05-.29.07-.42,0-.15.07-.25.18-.32.11-.06.26-.09.43-.09.22,0,.38.04.48.13.1.09.15.26.15.51,0,.42-.11.8-.33,1.13-.22.33-.53.59-.93.78-.4.19-.87.28-1.4.28Z"/><path class="cls-1" d="m87.15,68.41c-.17,0-.31-.04-.43-.13-.11-.09-.17-.18-.17-.28v-4.74c0-.12.06-.21.17-.29.11-.07.26-.11.43-.11.16,0,.29.04.4.11.11.07.16.17.16.29v.51c.09-.16.2-.32.35-.47.14-.15.31-.27.51-.37s.41-.15.63-.15h.37c.12,0,.23.05.33.16.09.11.14.23.14.38s-.05.28-.14.39c-.09.11-.2.16-.33.16h-.37c-.23,0-.46.07-.68.21s-.4.34-.53.59c-.14.25-.2.56-.2.92v2.4c0,.1-.06.2-.18.28-.12.09-.27.13-.45.13Z"/><path class="cls-1" d="m91,71.04c-.16,0-.29-.03-.4-.1-.11-.07-.16-.21-.16-.43,0-.14.02-.26.07-.37.05-.11.13-.16.26-.16.15,0,.31-.04.49-.11.18-.07.35-.19.51-.35.17-.16.31-.36.43-.6.12-.24.2-.53.25-.85l-1.98-4.54c-.03-.05-.05-.11-.05-.16,0-.1.04-.2.13-.29.09-.09.2-.16.32-.22s.24-.08.35-.08c.08,0,.15.02.23.05s.12.09.15.17l1.47,3.8,1.28-3.8c.02-.08.07-.13.14-.17.07-.04.14-.05.21-.05.09,0,.2.03.33.08s.24.13.34.22.15.19.15.31c0,.06-.01.11-.04.14l-1.76,4.58c-.13.34-.25.68-.39,1.02-.13.35-.29.67-.49.95-.19.29-.44.52-.74.7s-.68.26-1.13.26Z"/><path class="cls-1" d="m97.13,71.04c-.17,0-.31-.04-.43-.13-.11-.09-.17-.18-.17-.28v-7.37c0-.12.06-.21.17-.29.11-.07.25-.11.42-.11s.3.04.41.11c.11.07.16.17.16.29v.42c.13-.23.33-.43.6-.61.27-.18.59-.27.97-.27s.74.1,1.06.31.57.48.76.83.28.74.28,1.16v1.08c0,.41-.1.79-.29,1.14-.19.36-.44.64-.75.86-.31.22-.65.33-1.02.33s-.67-.09-.95-.27-.48-.4-.6-.64v3.04c0,.1-.06.2-.18.28-.12.09-.27.13-.45.13Zm1.81-3.63c.21,0,.41-.06.58-.18s.33-.27.44-.47c.11-.19.17-.39.17-.6v-1.08c0-.2-.05-.4-.16-.58-.11-.19-.26-.34-.44-.46-.18-.12-.39-.18-.61-.18-.19,0-.37.05-.55.15-.18.1-.33.24-.44.42-.11.18-.17.4-.17.66v1.35c0,.09.05.22.15.37.1.15.24.29.42.42.18.13.38.19.61.19Z"/><path class="cls-1" d="m104.7,68.41c-.66,0-1.17-.15-1.52-.44s-.53-.75-.53-1.39v-5.86c0-.12.06-.21.19-.29.13-.07.27-.11.42-.11s.29.04.42.11c.13.07.2.17.2.29v2.14h1.43c.11,0,.19.05.25.14.06.09.09.2.09.32s-.03.22-.09.32c-.06.09-.14.14-.25.14h-1.43v2.81c0,.28.06.48.18.6.12.12.33.18.64.18h.4c.18,0,.31.05.4.16.09.11.13.23.13.37s-.05.25-.13.36c-.09.11-.22.16-.4.16h-.4Z"/><path class="cls-1" d="m108.82,68.5c-.42,0-.82-.11-1.18-.33-.37-.22-.66-.51-.88-.86-.22-.35-.33-.74-.33-1.14v-1.08c0-.41.11-.8.32-1.15s.51-.63.88-.84c.37-.21.77-.32,1.21-.32s.84.11,1.21.32c.37.21.66.49.88.83.22.34.33.73.33,1.16v1.08c0,.4-.11.78-.33,1.14-.22.36-.52.65-.89.87-.37.22-.77.33-1.21.33Zm.01-1.09c.22,0,.42-.06.6-.18.18-.12.32-.27.43-.46.11-.19.16-.39.16-.6v-1.08c0-.21-.05-.41-.16-.59-.11-.18-.25-.33-.43-.45-.18-.12-.38-.18-.61-.18s-.42.06-.59.18-.32.27-.42.45c-.11.18-.16.38-.16.59v1.08c0,.21.05.41.16.6.11.19.25.35.43.46.18.12.38.18.6.18Z"/><path class="cls-1" d="m114.8,68.5c-.56,0-1.02-.1-1.39-.3-.36-.2-.63-.48-.8-.83-.17-.35-.26-.75-.26-1.19v-1.05c0-.44.09-.83.26-1.19.17-.35.44-.63.8-.84.36-.2.81-.3,1.37-.3.36,0,.67.04.94.13.27.09.48.19.63.32.15.13.23.26.23.4,0,.07-.02.15-.06.25-.04.1-.1.18-.18.25-.07.07-.16.1-.26.1-.08,0-.16-.03-.25-.09-.09-.06-.21-.12-.36-.18-.15-.06-.35-.09-.6-.09-.44,0-.76.11-.97.33-.21.22-.32.52-.32.91v1.05c0,.39.11.69.32.91.21.22.54.33.98.33.26,0,.46-.03.61-.1.15-.07.27-.13.36-.19s.18-.09.26-.09c.11,0,.2.03.29.09.08.06.14.14.19.23.04.09.06.18.06.26,0,.13-.08.27-.24.41s-.38.26-.66.35c-.28.09-.6.13-.95.13Z"/><path class="cls-1" d="m120.14,68.5c-.44,0-.85-.11-1.22-.32-.37-.21-.67-.5-.88-.85-.22-.35-.33-.73-.33-1.13v-2.93c0-.1.06-.19.18-.28.12-.09.26-.13.43-.13s.32.04.44.13c.12.09.18.18.18.28v2.93c0,.21.05.41.16.59.11.18.25.33.43.45s.38.18.61.18.42-.06.6-.18c.18-.12.32-.27.43-.46.11-.19.16-.38.16-.59v-2.94c0-.11.06-.2.19-.28.12-.08.27-.12.43-.12.18,0,.33.04.44.12.11.08.17.17.17.28v2.94c0,.41-.11.8-.33,1.15-.22.35-.51.63-.88.84-.37.21-.76.32-1.19.32Z"/><path class="cls-1" d="m124.6,68.41c-.17,0-.31-.04-.43-.13-.11-.09-.17-.18-.17-.28v-4.74c0-.12.06-.21.17-.29.11-.07.26-.11.43-.11.16,0,.29.04.4.11.11.07.16.17.16.29v.51c.09-.16.2-.32.35-.47.14-.15.31-.27.51-.37.2-.1.41-.15.63-.15h.37c.12,0,.23.05.33.16.09.11.14.23.14.38s-.05.28-.14.39-.2.16-.33.16h-.37c-.23,0-.46.07-.68.21-.22.14-.4.34-.53.59-.14.25-.2.56-.2.92v2.4c0,.1-.06.2-.18.28-.12.09-.27.13-.45.13Z"/><path class="cls-1" d="m129.02,68.41c-.17,0-.31-.04-.43-.13-.11-.09-.17-.18-.17-.28v-4.74c0-.12.06-.21.17-.29.11-.07.26-.11.43-.11.16,0,.29.04.4.11.11.07.16.17.16.29v.51c.09-.16.2-.32.35-.47.14-.15.31-.27.51-.37s.41-.15.63-.15h.37c.12,0,.23.05.33.16.09.11.14.23.14.38s-.05.28-.14.39c-.09.11-.2.16-.33.16h-.37c-.23,0-.46.07-.68.21s-.4.34-.53.59c-.14.25-.2.56-.2.92v2.4c0,.1-.06.2-.18.28-.12.09-.27.13-.45.13Z"/><path class="cls-1" d="m135.18,68.5c-.53,0-1-.1-1.4-.29-.41-.19-.73-.47-.96-.81s-.35-.75-.35-1.22v-1.11c0-.41.11-.79.33-1.14.22-.34.52-.62.88-.82.37-.21.77-.31,1.22-.31.42,0,.81.09,1.16.27.35.18.63.44.85.77s.32.7.32,1.12c0,.33-.05.56-.15.7s-.23.23-.4.26c-.16.03-.34.05-.51.05h-2.47v.27c0,.39.14.7.43.93.29.23.65.35,1.09.35.27,0,.5-.04.67-.12.17-.08.32-.15.43-.22.12-.07.23-.11.33-.11s.19.03.26.09c.07.06.12.14.16.22s.06.16.06.23c0,.12-.08.25-.24.39-.16.14-.38.26-.67.36-.29.1-.63.15-1.03.15Zm-1.49-3.3h1.94c.17,0,.29-.02.35-.07.06-.05.09-.14.09-.28,0-.2-.05-.39-.15-.57-.1-.18-.24-.31-.42-.41-.18-.1-.38-.15-.61-.15s-.42.05-.6.14c-.18.09-.32.22-.43.39s-.16.36-.16.57v.37Z"/><path class="cls-1" d="m139.07,68.41c-.18,0-.33-.04-.44-.13-.11-.09-.17-.18-.17-.28v-4.74c0-.12.06-.21.17-.29.11-.07.26-.11.44-.11.15,0,.28.04.39.11.11.07.16.17.16.29v.42c.12-.23.31-.43.58-.61.27-.18.6-.27.99-.27.37,0,.7.1,1.01.31s.56.48.74.83c.19.35.28.74.28,1.16v2.9c0,.13-.06.23-.19.3-.13.07-.27.11-.43.11-.14,0-.28-.04-.41-.11-.13-.07-.2-.17-.2-.3v-2.9c0-.2-.05-.4-.16-.58-.11-.19-.25-.34-.43-.46s-.38-.18-.6-.18c-.19,0-.37.05-.54.15-.17.1-.31.24-.42.42-.11.18-.16.4-.16.66v2.9c0,.1-.06.2-.18.28-.12.09-.27.13-.44.13Z"/><path class="cls-1" d="m146.94,68.5c-.56,0-1.02-.1-1.39-.3s-.63-.48-.8-.83c-.17-.35-.26-.75-.26-1.19v-1.05c0-.44.09-.83.26-1.19.17-.35.44-.63.8-.84.36-.2.82-.3,1.37-.3.36,0,.67.04.94.13s.48.19.63.32c.15.13.23.26.23.4,0,.07-.02.15-.06.25-.04.1-.1.18-.18.25-.07.07-.16.1-.26.1-.08,0-.16-.03-.25-.09-.09-.06-.21-.12-.36-.18-.15-.06-.35-.09-.6-.09-.44,0-.76.11-.97.33-.21.22-.32.52-.32.91v1.05c0,.39.11.69.32.91.21.22.54.33.98.33.26,0,.46-.03.61-.1.15-.07.27-.13.36-.19s.18-.09.26-.09c.11,0,.2.03.29.09s.14.14.19.23.06.18.06.26c0,.13-.08.27-.24.41-.16.14-.38.26-.66.35s-.6.13-.95.13Z"/><path class="cls-1" d="m149.92,71.04c-.16,0-.29-.03-.4-.1-.11-.07-.16-.21-.16-.43,0-.14.02-.26.07-.37.05-.11.13-.16.26-.16.15,0,.31-.04.49-.11.18-.07.35-.19.51-.35.17-.16.31-.36.43-.6.12-.24.2-.53.25-.85l-1.98-4.54c-.03-.05-.05-.11-.05-.16,0-.1.04-.2.13-.29.09-.09.2-.16.32-.22s.24-.08.35-.08c.08,0,.15.02.23.05s.12.09.15.17l1.47,3.8,1.28-3.8c.02-.08.07-.13.14-.17.07-.04.14-.05.21-.05.09,0,.2.03.33.08s.24.13.34.22.15.19.15.31c0,.06-.01.11-.04.14l-1.76,4.58c-.13.34-.25.68-.39,1.02-.13.35-.29.67-.49.95-.19.29-.44.52-.74.7s-.68.26-1.13.26Z"/><path class="cls-1" d="m160.34,68.41c-.16,0-.3-.04-.43-.11-.13-.07-.19-.17-.19-.3v-7.01h-1.81c-.12,0-.22-.06-.29-.18-.07-.12-.11-.25-.11-.4,0-.14.03-.27.09-.39.06-.12.16-.18.3-.18h4.86c.15,0,.25.06.32.18s.09.24.09.37c0,.16-.03.29-.1.41s-.17.18-.31.18h-1.8v7.01c0,.13-.06.23-.19.3-.13.07-.27.11-.43.11Z"/><path class="cls-1" d="m163.68,68.41c-.17,0-.31-.04-.43-.13-.11-.09-.17-.18-.17-.28v-4.74c0-.12.06-.21.17-.29.11-.07.26-.11.43-.11.16,0,.29.04.4.11.11.07.16.17.16.29v.51c.09-.16.2-.32.35-.47.14-.15.31-.27.51-.37s.41-.15.63-.15h.37c.12,0,.23.05.33.16.09.11.14.23.14.38s-.05.28-.14.39c-.09.11-.2.16-.33.16h-.37c-.23,0-.46.07-.68.21s-.4.34-.53.59c-.14.25-.2.56-.2.92v2.4c0,.1-.06.2-.18.28-.12.09-.27.13-.45.13Z"/><path class="cls-1" d="m168.58,68.5c-.43,0-.8-.13-1.1-.38-.3-.25-.46-.64-.46-1.16,0-.44.12-.79.35-1.03s.56-.41.97-.5.88-.14,1.42-.14h.51v-.21c0-.2-.04-.4-.11-.59-.07-.19-.2-.35-.36-.48-.17-.13-.4-.19-.68-.19s-.51.03-.67.08c-.16.05-.28.11-.37.18-.09.06-.18.09-.26.09-.14,0-.25-.07-.33-.2s-.12-.27-.12-.42.09-.27.27-.38.41-.2.68-.27c.27-.07.54-.1.81-.1.58,0,1.04.11,1.38.32.34.21.59.49.75.84.16.34.23.71.23,1.11v2.94c0,.11-.06.2-.17.29-.11.08-.26.12-.43.12-.16,0-.29-.04-.4-.12s-.16-.18-.16-.29v-.41c-.2.23-.45.44-.74.63-.29.19-.63.28-1.03.28Zm.44-.94c.19,0,.39-.06.58-.18s.35-.27.48-.44c.13-.18.19-.36.19-.55v-.43h-.29c-.3,0-.58.02-.84.05-.27.04-.48.11-.64.23-.16.12-.24.31-.24.56,0,.27.07.46.22.58.14.12.33.18.54.18Z"/><path class="cls-1" d="m174.83,68.5c-.37,0-.71-.11-1.02-.33s-.56-.51-.75-.86c-.19-.35-.29-.74-.29-1.14v-1.08c0-.43.1-.82.29-1.16s.44-.62.75-.83.66-.31,1.04-.31.69.09.95.27c.26.18.45.39.57.61v-3.72c0-.12.06-.21.19-.29.12-.07.27-.11.44-.11s.31.04.43.11c.11.07.17.17.17.29v8.04c0,.1-.06.2-.17.28-.11.09-.26.13-.43.13-.15,0-.28-.04-.39-.13-.11-.09-.17-.18-.17-.28v-.41c-.12.24-.32.45-.62.64-.3.18-.63.27-.99.27Zm.35-1.09c.23,0,.43-.06.61-.19.18-.12.32-.26.43-.42.11-.15.16-.27.16-.37v-1.35c0-.26-.06-.48-.18-.66-.12-.18-.27-.32-.44-.42-.18-.1-.37-.15-.56-.15-.22,0-.42.06-.6.18-.18.12-.33.27-.43.46-.11.19-.16.38-.16.58v1.08c0,.2.05.4.16.6.11.2.25.35.43.47.18.12.38.18.6.18Z"/><path class="cls-1" d="m179.74,61.47c-.2,0-.37-.07-.51-.2-.14-.13-.21-.28-.21-.44,0-.18.07-.33.21-.46.14-.12.31-.19.51-.19s.36.06.5.19c.14.13.2.28.2.46,0,.16-.07.31-.2.44-.14.13-.3.2-.5.2Zm0,6.94c-.18,0-.33-.04-.44-.13-.11-.09-.17-.18-.17-.28v-4.74c0-.12.06-.21.17-.29.11-.07.26-.11.44-.11s.32.04.44.11c.12.07.18.17.18.29v4.74c0,.1-.06.2-.18.28-.12.09-.27.13-.44.13Z"/><path class="cls-1" d="m182.48,68.41c-.18,0-.33-.04-.44-.13-.11-.09-.17-.18-.17-.28v-4.74c0-.12.06-.21.17-.29.11-.07.26-.11.44-.11.15,0,.28.04.39.11.11.07.16.17.16.29v.42c.12-.23.31-.43.58-.61.27-.18.6-.27.99-.27.37,0,.7.1,1.01.31.31.21.56.48.74.83s.28.74.28,1.16v2.9c0,.13-.06.23-.19.3-.13.07-.27.11-.43.11-.14,0-.28-.04-.41-.11-.13-.07-.2-.17-.2-.3v-2.9c0-.2-.05-.4-.16-.58-.11-.19-.25-.34-.43-.46-.18-.12-.38-.18-.6-.18-.19,0-.37.05-.54.15-.17.1-.31.24-.42.42-.11.18-.16.4-.16.66v2.9c0,.1-.06.2-.18.28-.12.09-.27.13-.44.13Z"/><path class="cls-1" d="m190.19,71.04c-.45,0-.87-.06-1.25-.19-.38-.13-.69-.31-.91-.56s-.34-.53-.34-.87c0-.31.09-.57.27-.78.18-.21.39-.36.63-.47-.16-.07-.28-.16-.39-.28s-.15-.28-.15-.49.05-.39.16-.53c.11-.13.25-.25.42-.36-.22-.17-.39-.38-.51-.64-.12-.25-.18-.53-.18-.84v-.33c0-.37.09-.71.27-.99.18-.29.43-.51.77-.68.33-.16.71-.25,1.14-.25.26,0,.51.04.74.11.23.07.43.17.61.29.12-.29.25-.49.38-.61s.25-.18.37-.18c.16,0,.29.05.37.14.09.09.13.19.13.28,0,.06-.02.12-.05.17-.04.05-.08.09-.15.12-.08.04-.17.09-.27.16s-.21.17-.31.31c.13.15.23.32.29.51.06.2.09.4.09.61v.33c0,.37-.09.7-.28.99-.19.3-.45.53-.78.7-.34.17-.72.25-1.15.25-.3,0-.57-.05-.81-.14-.06.04-.12.08-.16.13s-.06.12-.06.19c0,.14.09.24.26.3.17.06.39.11.66.14.27.03.56.07.86.12s.59.12.86.23c.27.11.49.26.66.47.17.21.26.49.26.85,0,.41-.11.74-.34,1s-.53.45-.9.58c-.37.12-.78.19-1.22.19Zm-.02-.82c.38,0,.69-.08.93-.25s.36-.39.36-.66c0-.2-.06-.35-.18-.46-.12-.11-.27-.19-.46-.25s-.38-.09-.59-.12-.4-.05-.59-.07c-.22.08-.4.19-.56.33-.15.14-.23.33-.23.54,0,.29.12.51.37.68s.56.25.94.25Zm-.02-4.03c.31,0,.56-.11.73-.33.18-.22.26-.5.26-.83v-.33c0-.32-.09-.59-.26-.81-.18-.22-.42-.33-.74-.33s-.57.11-.74.33c-.17.22-.26.49-.26.81v.32c0,.33.09.6.26.83.17.23.42.34.75.34Z"/><path class="cls-1" d="m197.03,68.41c-.16,0-.3-.04-.4-.12-.1-.08-.15-.17-.15-.28v-7.75c0-.13.06-.23.18-.3.12-.07.24-.11.37-.11h2.13c.42,0,.81.05,1.17.16s.65.31.87.6c.22.29.33.71.33,1.26,0,.49-.09.9-.26,1.22-.18.32-.42.55-.73.68.24.09.45.22.63.37.18.15.32.36.42.61.1.25.15.58.15.98v.22c0,.6-.1,1.08-.3,1.44-.2.36-.48.62-.83.78-.35.16-.75.24-1.19.24h-2.38Zm.68-5.13h1.4c.4,0,.69-.1.88-.3s.29-.5.29-.9c0-.27-.05-.48-.15-.64-.1-.16-.24-.28-.42-.36s-.39-.12-.63-.12h-1.38v2.33Zm0,4.03h1.46c.42,0,.75-.11.98-.35.23-.23.35-.6.35-1.11v-.19c0-.51-.12-.88-.35-1.09-.23-.21-.56-.32-.98-.32h-1.46v3.04Z"/><path class="cls-1" d="m205.24,68.5c-.42,0-.82-.11-1.18-.33-.37-.22-.66-.51-.88-.86-.22-.35-.33-.74-.33-1.14v-1.08c0-.41.11-.8.32-1.15.21-.35.51-.63.88-.84.37-.21.77-.32,1.21-.32s.84.11,1.21.32c.37.21.66.49.88.83.22.34.33.73.33,1.16v1.08c0,.4-.11.78-.33,1.14-.22.36-.52.65-.89.87s-.77.33-1.21.33Zm.01-1.09c.22,0,.42-.06.6-.18s.32-.27.43-.46c.11-.19.16-.39.16-.6v-1.08c0-.21-.05-.41-.16-.59-.11-.18-.25-.33-.43-.45s-.38-.18-.61-.18-.42.06-.59.18c-.18.12-.32.27-.42.45-.11.18-.16.38-.16.59v1.08c0,.21.05.41.16.6.11.19.25.35.43.46s.38.18.6.18Z"/><path class="cls-1" d="m211,68.41c-.66,0-1.17-.15-1.52-.44s-.53-.75-.53-1.39v-5.86c0-.12.06-.21.19-.29.13-.07.27-.11.42-.11s.29.04.42.11c.13.07.2.17.2.29v2.14h1.43c.11,0,.19.05.25.14.06.09.09.2.09.32s-.03.22-.09.32c-.06.09-.14.14-.25.14h-1.43v2.81c0,.28.06.48.18.6.12.12.33.18.64.18h.4c.18,0,.31.05.4.16.09.11.13.23.13.37s-.05.25-.13.36c-.09.11-.22.16-.4.16h-.4Z"/></g></g></svg>